<svg width="512" height="512" viewBox="0 0 512 512" fill="none" xmlns="http://www.w3.org/2000/svg">
    <!-- White background -->
    <rect width="512" height="512" fill="white"/>
    
    <!-- Logo centered with padding -->
    <g transform="translate(156, 128)">
        <!-- Scale logo to fit nicely in 512x512 with padding -->
        <g transform="scale(7.7)">
            <path d="M0 0H2.53659V36H0V0Z" fill="#B8860B" />
            <path d="M23.4634 0H26V36H23.4634V0Z" fill="#B8860B" />
            <path d="M6.65854 0H2.53659V2.23009H5.54878C7.57805 2.23009 8.19106 4.67257 8.2439 5.89381V11.469H13.1585V9.55752H10.4634V5.89381C10.4634 1.43363 7.92683 0.106195 6.65854 0Z" fill="#B8860B" />
            <path d="M19.5 0H23.622V2.23009H20.6098C18.5805 2.23009 17.9675 4.67257 17.9146 5.89381V11.469H13V9.55752H15.6951V5.89381C15.6951 1.43363 18.2317 0.106195 19.5 0Z" fill="#B8860B" />
            <path d="M6.65854 36H2.53659V33.7699H5.54878C7.57805 33.7699 8.19106 31.3274 8.2439 30.1062V24.531H13.1585V26.4425H10.4634V30.1062C10.4634 34.5664 7.92683 35.8938 6.65854 36Z" fill="#B8860B" />
            <path d="M19.5 36H23.622V33.7699H20.6098C18.5805 33.7699 17.9675 31.3274 17.9146 30.1062V24.531H13V26.4425H15.6951V30.1062C15.6951 34.5664 18.2317 35.8938 19.5 36Z" fill="#B8860B" />
            <path d="M8.8204 13.9308C9.33925 13.9308 9.81486 14.008 10.2472 14.1625C10.6844 14.3121 11.0783 14.5101 11.429 14.7562C11.7846 14.9976 12.0968 15.2534 12.3659 15.5237C12.5388 15.683 12.6973 15.8471 12.8415 16.0161C12.9904 16.185 13.1297 16.3492 13.2594 16.5084C13.3747 16.3492 13.4972 16.1923 13.6269 16.0378C13.7567 15.8833 13.9224 15.712 14.1242 15.5237C14.5277 15.1183 15.0249 14.7514 15.6159 14.4232C16.2116 14.0949 16.9058 13.9308 17.6984 13.9308C18.4287 13.9308 19.0916 14.1094 19.6874 14.4666C20.2879 14.819 20.7635 15.2969 21.1142 15.9002C21.4697 16.4988 21.6474 17.1649 21.6474 17.8986C21.6474 18.4537 21.5442 18.9751 21.3376 19.4626C21.1358 19.9453 20.8548 20.3701 20.4945 20.7369C20.1341 21.099 19.7138 21.3838 19.2334 21.5913C18.7578 21.794 18.2461 21.8954 17.6984 21.8954C17.17 21.8954 16.6848 21.8206 16.2428 21.671C15.8056 21.5165 15.4093 21.321 15.0538 21.0845C14.7031 20.8431 14.3932 20.5921 14.1242 20.3315C13.9512 20.1577 13.7927 19.9863 13.6486 19.8174C13.5044 19.6436 13.3747 19.4771 13.2594 19.3178C13.1297 19.4771 12.9904 19.6436 12.8415 19.8174C12.6973 19.9863 12.5388 20.1577 12.3659 20.3315C12.0968 20.5921 11.7846 20.8431 11.429 21.0845C11.0783 21.321 10.6844 21.5165 10.2472 21.671C9.81486 21.8206 9.33925 21.8954 8.8204 21.8954C8.08056 21.8954 7.41038 21.7168 6.80987 21.3596C6.20935 21.0024 5.73134 20.5221 5.37583 19.9187C5.02033 19.3154 4.84257 18.642 4.84257 17.8986C4.84257 17.3484 4.94346 16.8343 5.14523 16.3564C5.35181 15.8737 5.63526 15.4513 5.99557 15.0893C6.36068 14.7273 6.78344 14.4449 7.26386 14.2422C7.74908 14.0346 8.26792 13.9308 8.8204 13.9308ZM6.48559 17.8986C6.48559 18.3331 6.58888 18.7289 6.79545 19.0861C7.00684 19.4385 7.28788 19.7208 7.63858 19.9332C7.99409 20.1408 8.38803 20.2446 8.8204 20.2446C9.29601 20.2446 9.73078 20.136 10.1247 19.9187C10.5187 19.7015 10.8814 19.4336 11.2129 19.115C11.429 18.8978 11.6188 18.6879 11.7822 18.4851C11.9455 18.2824 12.092 18.0869 12.2217 17.8986C12.092 17.7249 11.9479 17.539 11.7894 17.3411C11.6356 17.1384 11.4435 16.9284 11.2129 16.7112C10.8958 16.3926 10.5355 16.1247 10.1319 15.9075C9.73319 15.6903 9.29601 15.5817 8.8204 15.5817C8.38803 15.5817 7.99409 15.6879 7.63858 15.9002C7.28788 16.1078 7.00684 16.3878 6.79545 16.7401C6.58888 17.0877 6.48559 17.4739 6.48559 17.8986ZM20.0044 17.8986C20.0044 17.4739 19.8987 17.0877 19.6874 16.7401C19.4808 16.3878 19.2021 16.1078 18.8514 15.9002C18.5055 15.6879 18.1212 15.5817 17.6984 15.5817C17.3718 15.5817 17.0643 15.6323 16.7761 15.7337C16.4878 15.8302 16.2188 15.9654 15.969 16.1392C15.7191 16.3081 15.4885 16.4988 15.2772 16.7112C15.0177 16.9574 14.8016 17.1963 14.6286 17.428C14.4605 17.6549 14.3404 17.8117 14.2683 17.8986C14.398 18.0869 14.5445 18.2824 14.7079 18.4851C14.8712 18.6879 15.061 18.8978 15.2772 19.115C15.6086 19.4336 15.9714 19.7015 16.3653 19.9187C16.764 20.136 17.2084 20.2446 17.6984 20.2446C18.1212 20.2446 18.5055 20.1408 18.8514 19.9332C19.2021 19.7208 19.4808 19.4385 19.6874 19.0861C19.8987 18.7289 20.0044 18.3331 20.0044 17.8986Z" fill="#B8860B" />
        </g>
    </g>
</svg>
